<svg height="40" viewBox="0 0 378 141" xmlns="http://www.w3.org/2000/svg">
					<g clip-path="url(#clip0_415_5368)">
					<path d="M165.245 5.15013C165.633 2.72077 164.129 1.65186 162.09 1.65186H131.759C129.721 1.65186 127.877 3.10947 127.488 5.15013L121.713 38.0437L162.867 18.7545L165.245 5.19872V5.15013Z" fill="#008BD2"/>
					<path d="M37.4651 135.558L46.4917 84.2018H91.8672C93.9055 84.2018 95.7496 82.5498 96.1379 80.5091L100.02 58.6935V58.159C100.02 56.3127 98.71 55.0009 96.8658 55.0009H51.4903L53.8683 41.688C55.1786 34.6428 57.7507 32.4564 64.3993 32.4564H101.67C103.709 32.4564 105.553 30.8044 105.941 28.7638L110.017 6.21933V5.49052C110.017 3.83856 108.901 2.72105 106.863 2.5267C100.02 1.60355 88.9555 0.145931 71.0479 0.145931C46.3461 0.0973436 22.9062 4.17867 16.4517 41.688L0 135.558V136.287C0 137.939 1.11619 139.251 2.96033 139.251H33.0489C35.0872 139.251 37.1254 137.599 37.4651 135.558Z" fill="#164194"/>
					<path d="M225.325 32.2133H262.644C264.682 32.2133 266.721 30.5613 267.06 28.5207L270.943 5.92764V5.19883C270.943 3.35252 270.021 2.42936 267.982 2.23501C261.14 1.31185 249.881 0 231.925 0C205.864 0 183.686 4.08132 177.231 41.4449L167.089 99.5551C166.506 102.859 166.167 106.017 166.167 108.981C166.167 133.226 185.918 141 207.563 141C225.47 141 236.778 139.688 243.96 138.765C246.338 138.376 247.842 137.259 248.231 135.072L252.307 112.479V111.945C252.307 110.099 250.997 108.787 249.153 108.787H211.833C206.495 108.787 204.263 107.475 204.263 103.248C204.263 102.13 204.457 101.013 204.651 99.5551L207.417 84.2016H252.89C254.928 84.2016 256.772 82.5496 257.16 80.509L261.043 58.6933V58.1589C261.043 56.3125 259.732 55.0007 257.888 55.0007H212.416L214.842 41.4935C216.152 34.4483 218.724 32.2619 225.373 32.2619L225.325 32.2133Z" fill="#164194"/>
					<path d="M373.196 22.2043C372.468 3.88696 359.17 0.194336 341.603 0.194336C324.035 0.194336 309.427 3.88696 302.245 22.2043L257.5 135.461C257.306 135.996 257.112 136.579 257.112 136.919C257.112 138.376 258.034 139.348 259.684 139.348H292.393C294.237 139.348 295.887 137.696 296.664 135.85L306.467 110.147H339.37L339.953 135.85C339.953 137.696 341.263 139.348 343.107 139.348H374.506C376.544 139.348 378 137.696 378 135.655V135.461L373.196 22.2043ZM316.998 80.5089L334.372 33.5251C334.905 31.8732 335.099 30.95 336.75 30.95C338.4 30.95 338.4 31.8732 338.4 33.5251L339.127 80.5089H316.949H316.998Z" fill="#164194"/>
					<path d="M119.141 52.7657L104.582 135.558C104.194 137.405 105.31 139.251 107.542 139.251H137.873C140.64 139.251 141.95 137.599 142.338 135.558L160.294 33.4766L119.141 52.7657Z" fill="#164194"/>
					</g>
					<defs>
					<clipPath id="clip0_415_5368">
					<rect width="378" height="141" fill="white"/>
					</clipPath>
					</defs>
				</svg>